# xmcd
#
# Track frame offsets: 
#        150
#        20708
#        38313
#        53899
#        65261
#        80529
#        98117
#        120280
#        145976
#        165120
#
# Disc length: 2417 seconds
#
# Revision: 1
# Processed by: cddbd v1.5.2PL0 Copyright (c) Steve Scherf et al.
# Submitted via: ExactAudioCopyFreeDBPlugin 1.0
#
DISCID=70096f0a
DTITLE=Jon Kenzie - Not Much Technical Stuff
DYEAR=2011
DGENRE=Blues Folk
TTITLE0=Half pipe dream
TTITLE1=Pasty Song
TTITLE2=Pacifist
TTITLE3=Save us
TTITLE4=Lovers wave
TTITLE5=Tease Them
TTITLE6=Touch
TTITLE7=Quick Tongue
TTITLE8=Temper Tensions
TTITLE9=Tunnel Eyes
EXTD=
EXTT0=
EXTT1=
EXTT2=
EXTT3=
EXTT4=
EXTT5=
EXTT6=
EXTT7=
EXTT8=
EXTT9=
PLAYORDER=
